<svg xmlns="http://www.w3.org/2000/svg" width="170" height="68" viewBox="0 0 170 68" fill="none">
<path d="M50.5912 23.0704H52.8622V30.8685C53.6358 29.5327 55.1315 28.7591 57.0277 28.7591C60.0448 28.7591 61.996 30.5745 61.996 34.0747V42.3008H59.7267V34.5028C59.7267 31.9653 58.6316 30.7636 56.5222 30.7636C54.4661 30.7636 52.8639 32.0719 52.8639 35.3847V42.3026H50.5912V23.0704Z" fill="#255BE3"/>
<path d="M65.2005 38.6683C65.2005 36.6122 66.5363 35.2764 69.2061 34.85L71.931 34.422C73.3201 34.2088 73.908 33.7549 73.908 32.7389C73.908 31.5905 72.7338 30.8152 70.8909 30.8152C69.0755 30.8152 68.0337 31.563 67.4182 32.7389L65.4945 31.6438C66.3231 29.8284 68.2984 28.7591 70.8892 28.7591C74.0404 28.7591 76.1773 30.2822 76.1773 33.2186V39.3611C76.1773 40.243 76.3905 40.537 77.0317 40.537C77.2449 40.537 77.5389 40.4837 77.8328 40.3496V41.9794C77.3515 42.3266 76.8443 42.4865 76.2306 42.4865C75.0014 42.4865 74.2536 41.7387 74.0679 40.2963C73.3476 41.7112 71.8244 42.6206 69.7941 42.6206C67.15 42.6206 65.2005 41.1524 65.2005 38.6683ZM70.1689 40.6969C72.4124 40.6969 73.908 39.2287 73.908 36.717V35.4345C73.48 35.8351 72.7596 36.0758 71.6387 36.2632L69.5293 36.6104C68.1403 36.8511 67.499 37.5182 67.499 38.5875C67.4973 39.87 68.4325 40.6969 70.1689 40.6969Z" fill="#255BE3"/>
<path d="M80.7709 29.0806H82.9078V31.1367C83.6556 29.6152 85.1788 28.7591 87.2074 28.7591C90.2245 28.7591 92.1757 30.5745 92.1757 34.0747V42.3008H89.9047V34.5028C89.9047 31.9653 88.8096 30.7636 86.7002 30.7636C84.6441 30.7636 83.0419 32.0719 83.0419 35.3847V42.3026H80.7726V29.0806H80.7709Z" fill="#255BE3"/>
<path d="M105.769 42.3008V39.9765C104.968 41.7129 103.366 42.6206 101.282 42.6206C97.6237 42.6206 95.4593 39.8167 95.4593 35.7027C95.4593 31.5888 97.622 28.7591 101.282 28.7591C103.285 28.7591 104.834 29.5877 105.662 31.19V23.0704H107.933V42.3008H105.769ZM101.602 40.5645C104.165 40.5645 105.769 38.615 105.769 35.7045C105.769 32.7406 104.167 30.8169 101.602 30.8169C99.0644 30.8169 97.7836 32.6598 97.7836 35.7045C97.7836 38.6941 99.0661 40.5645 101.602 40.5645Z" fill="#255BE3"/>
<path d="M112.472 23.0704H114.741V42.3008H112.472V23.0704Z" fill="#255BE3"/>
<path d="M118.107 35.6769C118.107 31.6438 120.698 28.7591 124.57 28.7591C128.443 28.7591 131.032 31.6438 131.032 35.6769C131.032 39.7359 128.441 42.6206 124.57 42.6206C120.698 42.6206 118.107 39.7359 118.107 35.6769ZM124.57 40.5645C127.054 40.5645 128.709 38.7216 128.709 35.6769C128.709 32.6598 127.054 30.8169 124.57 30.8169C122.086 30.8169 120.43 32.6598 120.43 35.6769C120.43 38.7216 122.086 40.5645 124.57 40.5645Z" fill="#255BE3"/>
<path d="M132.529 29.0806H134.933L138.137 39.7359L141.316 29.0806H143.907L147.085 39.7359L150.29 29.0806H152.693L148.313 42.3008H145.775L142.624 31.7521L139.446 42.3008H136.908L132.529 29.0806Z" fill="#255BE3"/>
<path d="M153.867 46.5196L154.882 44.7575C155.336 45.1581 155.924 45.3455 156.591 45.3455C157.526 45.3455 158.22 44.9724 158.593 43.9306L159.047 42.7014L153.895 29.0806H156.405L160.197 39.7909L164.016 29.0806H166.447L160.357 44.8641C159.69 46.5729 158.434 47.4273 156.699 47.4273C155.604 47.4273 154.643 47.1334 153.867 46.5196Z" fill="#255BE3"/>
<path d="M27.3758 20C32.6501 20 37.2317 22.5822 40.0631 26.5517H36.5371C34.261 24.0245 31.096 22.4704 27.3758 22.4704C23.6555 22.4704 20.4906 24.0245 18.2144 26.5517H14.6884C17.5199 22.5822 22.0997 20 27.3758 20Z" fill="#FF3C28"/>
<path d="M0 35.603C0 31.4667 3.38673 28.2451 7.80151 28.2451C10.3562 28.2451 12.6873 29.3831 14.0197 31.104L12.1045 33.0191C11.1607 31.7693 9.52238 30.9097 7.82902 30.9097C5.19184 30.9097 3.08244 32.8816 3.08244 35.6013C3.08244 38.3502 5.19184 40.3204 7.82902 40.3204C9.66163 40.3204 11.3 39.4041 12.2438 38.1267L14.1314 39.9869C12.8541 41.792 10.4112 42.9851 7.80151 42.9851C3.38845 42.9885 0 39.7685 0 35.603Z" fill="#255BE3"/>
<path d="M16.6311 28.7453H19.6568V42.4882H16.6311V28.7453Z" fill="#255BE3"/>
<path d="M25.2922 38.7955V31.3H21.9879V28.7453H25.4314V25.8021L28.2629 24.4148V28.7453H32.7602V31.3H28.2629V38.2969C28.2629 39.6843 29.0399 40.2963 30.5115 40.2963C31.261 40.2963 31.9831 40.1571 32.7326 39.8253V42.4349C31.9556 42.796 31.0118 42.9902 29.9562 42.9902C27.264 42.9885 25.2922 41.5169 25.2922 38.7955Z" fill="#255BE3"/>
<path d="M35.1481 28.7453H38.1738V42.4882H35.1481V28.7453Z" fill="#255BE3"/>
<path d="M168.418 25.3019C169.335 25.3019 170 25.9397 170 26.801C170 27.6623 169.333 28.3001 168.418 28.3001C167.504 28.3001 166.835 27.6623 166.835 26.801C166.837 25.9397 167.502 25.3019 168.418 25.3019ZM168.418 28.0233C169.168 28.0233 169.696 27.5505 169.696 26.801C169.696 26.0514 169.168 25.5786 168.418 25.5786C167.669 25.5786 167.141 26.0497 167.141 26.801C167.141 27.5505 167.669 28.0233 168.418 28.0233ZM167.808 25.9964H168.585C168.919 25.9964 169.168 26.1356 169.168 26.4674C169.168 26.7167 169.001 26.8835 168.779 26.9402L169.168 27.6072H168.807L168.473 26.9694H168.14V27.6072H167.806L167.808 25.9964ZM168.53 26.6892C168.697 26.6892 168.807 26.6617 168.807 26.4674C168.807 26.3282 168.724 26.2732 168.558 26.2732H168.142V26.6892H168.53Z" fill="#255BE3"/>
</svg>