<svg xmlns="http://www.w3.org/2000/svg" width="171" height="68" viewBox="0 0 171 68" fill="none">
<path d="M53.5928 20.7246H28.005V46.3123H53.5928V20.7246Z" fill="#00B140"/>
<path d="M108.603 20.7246H83.0151V46.3123H108.603V20.7246Z" fill="#00B140"/>
<path d="M26.0877 20.7246H0.5V46.3123H26.0877V20.7246Z" fill="#00B140"/>
<path d="M81.0978 20.7246H55.5101V46.3123H81.0978V20.7246Z" fill="#00B140"/>
<path d="M46.2372 39.436V37.0394C46.2372 36.8651 46.0934 36.7213 45.9191 36.7213H39.4437C39.4001 36.7213 39.3653 36.6864 39.3653 36.6428V35.2048C39.3653 35.1613 39.4001 35.1264 39.4437 35.1264H44.9604C45.1347 35.1264 45.2785 34.9826 45.2785 34.8083V32.7297C45.2785 32.5511 45.1347 32.4116 44.9604 32.4116H39.4437C39.4001 32.4116 39.3653 32.3768 39.3653 32.3332V30.8952C39.3653 30.8516 39.4001 30.8167 39.4437 30.8167H45.9191C46.0977 30.8167 46.2372 30.6729 46.2372 30.4986V28.102C46.2372 27.9233 46.0934 27.7839 45.9191 27.7839H36.1624C35.9881 27.7839 35.8443 27.9277 35.8443 28.102V39.4535C35.8443 39.6278 35.9881 39.7716 36.1624 39.7716H45.9191C46.0977 39.7716 46.2372 39.6278 46.2372 39.4535" fill="white"/>
<path d="M14.7885 39.7541C14.8495 39.7541 14.9018 39.7193 14.928 39.6713L20.1178 28.224C20.1396 28.1804 20.1483 28.1325 20.1483 28.0845C20.1483 27.9059 20.0045 27.7664 19.8302 27.7664H16.6405C16.4444 27.7664 16.2744 27.8841 16.2004 28.054C16.2004 28.054 14.3092 32.2417 14.0913 32.7253C13.7645 33.4443 13.3679 34.7342 13.3679 34.7342C13.3549 34.7647 13.3287 34.7865 13.2939 34.7865C13.259 34.7865 13.2285 34.7647 13.2198 34.7342C13.2198 34.7342 12.8189 33.44 12.4964 32.7253C12.2785 32.246 10.3874 28.054 10.3874 28.054C10.3133 27.8841 10.1433 27.7664 9.94724 27.7664H6.75749C6.58318 27.7664 6.43938 27.9102 6.43938 28.0845C6.43938 28.1325 6.45246 28.1804 6.46989 28.224L11.6598 39.6713C11.6859 39.7236 11.7382 39.7541 11.7992 39.7541H14.7929H14.7885Z" fill="white"/>
<path d="M72.9404 36.7169C73.1147 36.7169 73.2585 36.8607 73.2585 37.035V39.4317C73.2585 39.606 73.1147 39.7498 72.9404 39.7498H64.4649C64.2906 39.7498 64.1468 39.606 64.1468 39.4317V28.0758C64.1468 27.9015 64.2906 27.7577 64.4649 27.7577H67.3453C67.5239 27.7577 67.6634 27.9015 67.6634 28.0758V36.6297C67.6634 36.6733 67.6983 36.7082 67.7418 36.7082H72.9404V36.7169Z" fill="white"/>
<path d="M95.809 27.6009C92.1007 27.6009 89.094 30.3941 89.094 33.8366C89.094 37.2791 92.1007 40.0723 95.809 40.0723C99.5173 40.0723 102.524 37.2791 102.524 33.8366C102.524 30.3941 99.5173 27.6009 95.809 27.6009ZM95.809 37.035C94.0442 37.035 92.6105 35.6014 92.6105 33.8366C92.6105 32.0718 94.0442 30.6381 95.809 30.6381C97.5738 30.6381 99.0075 32.0718 99.0075 33.8366C99.0075 35.6014 97.5738 37.035 95.809 37.035Z" fill="white"/>
<path d="M143.102 38.8977C143.102 38.8977 138.246 28.4929 138.226 28.4489C138.178 28.3569 138.078 28.2929 137.966 28.2929H135.405C135.293 28.2929 135.193 28.3569 135.145 28.4489C135.125 28.4929 130.269 38.8977 130.269 38.8977C130.253 38.9337 130.249 38.9697 130.249 39.0097C130.249 39.1737 130.381 39.3057 130.541 39.3057H133.393C133.573 39.3057 133.721 39.2017 133.797 39.0417C133.825 38.9817 134.069 38.4817 134.373 37.8376H139.002C139.31 38.4857 139.55 38.9817 139.578 39.0417C139.65 39.2017 139.802 39.3057 139.982 39.3057H142.834C142.994 39.3057 143.126 39.1737 143.126 39.0097C143.126 38.9697 143.118 38.9337 143.102 38.8977ZM135.441 35.4855C135.565 35.1934 135.665 34.9374 135.729 34.7534C135.829 34.4614 136.605 32.1892 136.617 32.1572C136.629 32.1252 136.653 32.1132 136.685 32.1132C136.717 32.1132 136.741 32.1252 136.753 32.1572C136.765 32.1892 137.542 34.4614 137.642 34.7534C137.706 34.9414 137.806 35.1934 137.93 35.4855H135.441Z" fill="#00B140"/>
<path d="M159.199 39.0097V28.5889C159.199 28.4289 159.331 28.2969 159.491 28.2969H162.135C162.299 28.2969 162.427 28.4289 162.427 28.5889V32.7853C162.427 32.8253 162.459 32.8573 162.499 32.8573C162.523 32.8573 162.543 32.8493 162.555 32.8333C162.555 32.8333 162.775 32.5492 163.455 31.8172C164.136 31.0851 166.596 28.4249 166.596 28.4249C166.676 28.3449 166.784 28.2969 166.908 28.2969H170.128C170.288 28.2969 170.42 28.4289 170.42 28.5889C170.42 28.6649 170.392 28.7369 170.344 28.789L166.116 33.3893C166.116 33.3893 166.096 33.4213 166.096 33.4373C166.096 33.4573 166.104 33.4733 166.112 33.4853L170.436 38.8297C170.476 38.8817 170.5 38.9417 170.5 39.0137C170.5 39.1737 170.368 39.3057 170.208 39.3057H166.904H166.916C166.776 39.3057 166.652 39.2417 166.572 39.1417L163.904 35.9175C163.904 35.9175 163.868 35.8895 163.844 35.8895C163.82 35.8895 163.8 35.9015 163.783 35.9175L162.443 37.3776C162.443 37.3776 162.423 37.4096 162.423 37.4296V39.0137C162.423 39.1737 162.291 39.3057 162.131 39.3057H159.487C159.327 39.3057 159.195 39.1737 159.195 39.0137" fill="#00B140"/>
<path d="M153.835 39.3017C153.723 39.3017 153.619 39.2617 153.543 39.1897C153.543 39.1897 149.398 35.0454 148.954 34.6054C148.514 34.1653 147.902 33.3773 147.902 33.3773C147.89 33.3653 147.87 33.3573 147.85 33.3573C147.81 33.3573 147.778 33.3893 147.778 33.4293V39.0057C147.778 39.1657 147.646 39.2977 147.486 39.2977H144.842C144.678 39.2977 144.55 39.1657 144.55 39.0057V28.5849C144.55 28.4209 144.682 28.2929 144.842 28.2929H147.154C147.266 28.2929 147.37 28.3369 147.446 28.4049C147.446 28.4049 151.595 32.5492 152.035 32.9893C152.475 33.4293 153.087 34.2174 153.087 34.2174C153.099 34.2294 153.119 34.2374 153.139 34.2374C153.179 34.2374 153.211 34.2054 153.211 34.1653V28.5889C153.211 28.4249 153.343 28.2969 153.503 28.2969H156.147C156.311 28.2969 156.439 28.4289 156.439 28.5889V39.0097C156.439 39.1697 156.307 39.3017 156.147 39.3017H153.835Z" fill="#00B140"/>
<path d="M128.392 33.3253C128.912 32.7932 129.232 32.1132 129.232 31.3731C129.232 29.669 127.56 28.2889 125.564 28.2889H119.4C119.236 28.2889 119.104 28.4209 119.104 28.5809V39.0017C119.104 39.1617 119.236 39.2937 119.4 39.2937H125.712C127.872 39.2937 129.676 37.7496 129.676 35.8455C129.676 34.8454 129.18 33.9493 128.396 33.3173M122.336 30.8531C122.336 30.8131 122.368 30.7811 122.408 30.7811H125.124C125.612 30.7811 126.004 31.1411 126.004 31.5891C126.004 32.0372 125.608 32.3972 125.124 32.3972H122.408C122.368 32.3972 122.336 32.3652 122.336 32.3252V30.8531ZM125.42 36.7975H122.412C122.372 36.7975 122.34 36.7655 122.34 36.7255V34.9654C122.34 34.9254 122.372 34.8934 122.412 34.8934H125.42C125.988 34.8934 126.448 35.3214 126.448 35.8495C126.448 36.3775 125.988 36.8015 125.42 36.8015" fill="#00B140"/>
</svg>